<?xml version="1.0" encoding="utf-8"?>
<!-- Generator: Adobe Illustrator 18.1.1, SVG Export Plug-In . SVG Version: 6.00 Build 0)  -->
<svg version="1.1" id="Layer_1" xmlns="http://www.w3.org/2000/svg" xmlns:xlink="http://www.w3.org/1999/xlink" x="0px" y="0px"
	 viewBox="0 0 14 12" style="enable-background:new 0 0 14 12;" xml:space="preserve">
<style type="text/css">
	.st0{fill:#2f5063;}
</style>
<g>
	<path class="st0" d="M13.4,2c-0.5,0.2-1,0.4-1.5,0.4c0.5-0.3,1-0.8,1.2-1.5c-0.5,0.3-1.1,0.5-1.7,0.6c-0.5-0.5-1.2-0.8-1.9-0.8
		C8,0.8,6.8,2,6.8,3.4c0,0.2,0,0.4,0.1,0.6C4.7,3.9,2.8,2.9,1.5,1.3C1.3,1.7,1.1,2.1,1.1,2.6c0,0.9,0.5,1.7,1.2,2.2
		c-0.4,0-0.8-0.1-1.2-0.3v0c0,1.3,0.9,2.3,2.1,2.6C3,7.1,2.8,7.2,2.5,7.2c-0.2,0-0.3,0-0.5,0c0.3,1,1.3,1.8,2.5,1.8
		c-0.9,0.7-2,1.1-3.3,1.1c-0.2,0-0.4,0-0.6,0c1.2,0.7,2.5,1.2,4,1.2c4.8,0,7.5-4,7.5-7.5l0-0.3C12.6,3,13,2.6,13.4,2L13.4,2z
		 M13.4,2"/>
</g>
</svg>
