<?xml version="1.0" encoding="utf-8"?>
<!-- Generator: Adobe Illustrator 18.1.1, SVG Export Plug-In . SVG Version: 6.00 Build 0)  -->
<svg version="1.1" xmlns="http://www.w3.org/2000/svg" xmlns:xlink="http://www.w3.org/1999/xlink" x="0px" y="0px"
	 viewBox="0 0 1024 250" style="enable-background:new 0 0 1024 250;" xml:space="preserve">
<style type="text/css">
	.st0{display:none;}
	.st1{display:inline;}
	.st2{fill:#ED1C24;}
	.st3{fill:#FFF200;}
	.st4{fill:#00A651;}
	.st5{fill:#00AEEF;}
	.st6{fill:#2E3192;}
	.st7{fill:#EC008C;}
	.st8{fill:#FBB040;}
	.st9{fill:#662D91;}
	.st10{fill:#9E1F63;}
	.st11{fill:#594A42;}
	.st12{fill:#39B54A;}
	.st13{fill:#2B3990;}
	.st14{fill:#231F20;}
	.st15{fill:#0D2838;}
	.st16{fill:#4A4B4C;}
	.st17{fill:#FFFFFF;}
</style>
<g id="Source" class="st0">
	<g class="st1">
		<g>
			<rect x="-4424.7" y="-1882.1" class="st2" width="497.2" height="804.5"/>
		</g>
		<g>
			<rect x="-4424.7" y="-1882.1" class="st3" width="497.2" height="307.3"/>
		</g>
		<g>
			<g>
				<rect x="-4424.7" y="-1882.1" class="st4" width="497.2" height="307.3"/>
			</g>
			<g>
				<rect x="-4117.4" y="-1882.1" class="st5" width="189.9" height="307.3"/>
			</g>
		</g>
		<g>
			<g>
				<rect x="-4117.4" y="-1882.1" class="st6" width="189.9" height="307.3"/>
			</g>
			<g>
				<rect x="-4117.4" y="-1692.2" class="st7" width="189.9" height="117.4"/>
			</g>
		</g>
		<g>
			<g>
				<rect x="-4117.4" y="-1692.2" class="st8" width="189.9" height="117.4"/>
			</g>
			<g>
				<rect x="-4117.4" y="-1692.2" class="st9" width="72.5" height="117.4"/>
			</g>
		</g>
		<g>
			<g>
				<rect x="-4117.4" y="-1692.2" class="st10" width="72.5" height="117.4"/>
			</g>
			<g>
				<rect x="-4117.4" y="-1692.2" class="st11" width="72.5" height="44.8"/>
			</g>
		</g>
		<g>
			<g>
				<rect x="-4117.4" y="-1692.2" class="st5" width="72.5" height="44.8"/>
			</g>
			<g>
				<rect x="-4072.6" y="-1692.2" class="st5" width="27.7" height="44.8"/>
			</g>
		</g>
		<g>
			<g>
				<rect x="-4072.6" y="-1692.2" class="st12" width="27.7" height="44.8"/>
			</g>
			<g>
				<rect x="-4072.6" y="-1664.5" class="st11" width="27.7" height="17.1"/>
			</g>
		</g>
		<g>
			<g>
				<rect x="-4062" y="-1664.5" class="st3" width="17.1" height="17.1"/>
			</g>
			<g>
				<rect x="-4072.6" y="-1664.5" class="st13" width="10.6" height="17.1"/>
			</g>
		</g>
		<circle class="st14" cx="-4173.2" cy="-1326.3" r="248.6"/>
		<circle class="st14" cx="-4271" cy="-1728.5" r="153.6"/>
		<circle class="st14" cx="-4022.5" cy="-1787.2" r="95"/>
		<circle class="st14" cx="-3986.2" cy="-1633.6" r="58.7"/>
		<circle class="st14" cx="-4081.2" cy="-1611.1" r="36.3"/>
		<circle class="st14" cx="-4094.9" cy="-1669.8" r="22.4"/>
		<circle class="st14" cx="-4058.8" cy="-1678.3" r="13.9"/>
		<circle class="st14" cx="-4053.5" cy="-1655.9" r="8.6"/>
		<circle class="st14" cx="-4067.4" cy="-1659.4" r="5.1"/>
	</g>
	<g class="st1">
		<path class="st15" d="M-3619.4-1080.7l-23.8-122.8h14.8l17.5,100.8l0.4,5.6l1.7-5.4l38.6-101h14.2l-49.1,122.8H-3619.4z"/>
		<path class="st15" d="M-3541.8-1203.4h59.4l-1.3,12.2h-45.8l-10.3,98.5h48l-1.1,12.2h-61.6L-3541.8-1203.4z M-3492.7-1150.9
			l-1.3,11.8h-35.5c1.3-3.3,3.1-6.1,5.2-8.4c2.2-2.3,5-3.5,8.4-3.5H-3492.7z"/>
		<path class="st15" d="M-3459-1203.4h13.6l-12.8,122.8h-13.6L-3459-1203.4z M-3398.5-1150.9l5.5-52.5h13.6l-12.8,122.8h-13.6
			l6-58.4h-46.8c1.3-3.3,3.1-6.1,5.2-8.4c2.2-2.3,4.9-3.5,8.3-3.5H-3398.5z"/>
		<path class="st15" d="M-3353.7-1080.7h-13.2l12.8-122.8h13.2L-3353.7-1080.7z"/>
		<path class="st15" d="M-3278.9-1078.6c-7.4,0-14.1-1.5-20.1-4.4c-6-2.9-11.1-7.1-15.1-12.6c-4.1-5.5-7-12.1-8.9-19.8
			c-1.9-7.8-2.3-16.5-1.2-26.3c1-9.4,3.2-18.1,6.6-25.9c3.4-7.8,7.8-14.5,13.1-20.2c5.3-5.6,11.2-10,17.9-13.1
			c6.7-3.1,13.7-4.6,21-4.6c4,0,8.1,0.5,12.3,1.4c4.2,0.9,8.4,2.4,12.6,4.2l-4.9,10.9c-4-1.6-7.7-2.7-11.1-3.4
			c-3.4-0.7-6.8-1-10.1-1c-5,0-9.8,1.1-14.5,3.2c-4.7,2.1-9,5.3-12.9,9.6c-3.9,4.3-7.2,9.7-9.9,16.1c-2.7,6.5-4.5,14-5.4,22.5
			c-0.8,7.7-0.5,14.6,0.9,20.9c1.4,6.2,3.5,11.6,6.5,16.1c2.9,4.5,6.5,8,10.8,10.4c4.3,2.4,8.9,3.6,13.9,3.6c3.4,0,6.8-0.5,10.5-1.5
			c3.6-1,7.6-2.7,11.9-5.1l2.6,11c-4.8,2.8-9.4,4.8-13.7,6C-3270.7-1079.2-3274.9-1078.6-3278.9-1078.6z"/>
		<path class="st15" d="M-3222.6-1203.4h20.5l-12.8,122.8h-20.5L-3222.6-1203.4z M-3203.7-1136.4c0.7-1.8,1.5-3.7,2.4-5.8
			c1-2.1,2.1-4,3.5-5.7c1.4-1.7,2.9-3.1,4.6-4.2c1.7-1.1,3.6-1.7,5.7-1.7h25.4l5.2-49.7h20.2l-12.8,122.8h-20.2l5.7-55.7H-3203.7z"
			/>
		<path class="st15" d="M-3102.7-1107.5l-10.3,26.9h-20.2l50.3-122.8h20.1l24.7,122.8h-21.3l-16.4-91.4l-0.6-6.2l-1.9,6.6
			l-16.8,43.7l-2.2,3.4l2.3-0.3h10.9c2.1,0,3.9,0.6,5.3,1.7c1.4,1.1,2.6,2.5,3.6,4.2c1,1.7,1.7,3.6,2.3,5.7c0.6,2.1,1,4,1.3,5.8
			H-3102.7z"/>
		<path class="st15" d="M-2980.5-1078.3c-6.4,0-12.1-1.1-17-3.2c-4.9-2.1-9-5.3-12.2-9.5c-3.2-4.2-5.5-9.3-6.7-15.5
			c-1.3-6.1-1.5-13.2-0.6-21.2l7.9-75.8h20.2l-8.2,78.4c-0.5,4.6-0.4,8.7,0.3,12.3c0.7,3.6,1.8,6.7,3.5,9.2c1.7,2.5,3.8,4.5,6.2,5.8
			c2.5,1.4,5.3,2,8.3,2c3.1,0,6-0.7,8.8-2c2.8-1.4,5.3-3.3,7.5-5.8c2.2-2.5,4-5.6,5.5-9.2c1.5-3.6,2.5-7.7,2.9-12.3l8.2-78.4h20.1
			l-7.9,75.8c-0.8,7.4-2.4,14.2-5,20.3c-2.6,6.1-5.9,11.3-9.9,15.6c-4,4.3-8.7,7.7-14.1,10
			C-2968.2-1079.4-2974.1-1078.3-2980.5-1078.3z"/>
		<path class="st15" d="M-2905-1203.4h20.7l-11.1,105.4h37.6l-1.7,17.4h-58.3L-2905-1203.4z"/>
	</g>
	<g class="st1">
		<g>
			<g>
				<polygon class="st15" points="-3414.2,-1681.8 -3430.1,-1681.8 -3430.1,-1355.1 -3414.2,-1350.5 				"/>
				<polygon class="st15" points="-3379.9,-1681.8 -3395.8,-1681.8 -3395.8,-1345.1 -3379.9,-1340.5 				"/>
				<polygon class="st15" points="-3345.6,-1681.8 -3361.5,-1681.8 -3361.5,-1335.1 -3345.6,-1330.5 				"/>
				<polygon class="st15" points="-3311.3,-1681.8 -3327.3,-1681.8 -3327.3,-1325.1 -3311.3,-1320.5 				"/>
				<polygon class="st15" points="-3277.1,-1681.8 -3293,-1681.8 -3293,-1315.1 -3277.1,-1310.5 				"/>
				<polygon class="st15" points="-3242.8,-1305.1 -3242.8,-1681.8 -3258.7,-1681.8 -3258.7,-1305.1 -3250.9,-1302.8 				"/>
				<polygon class="st15" points="-3208.5,-1681.8 -3224.4,-1681.8 -3224.4,-1310.5 -3208.5,-1315.2 				"/>
				<polygon class="st15" points="-3174.3,-1681.8 -3190.2,-1681.8 -3190.2,-1320.5 -3174.3,-1325.2 				"/>
				<polygon class="st15" points="-3140,-1681.8 -3155.9,-1681.8 -3155.9,-1330.5 -3140,-1335.2 				"/>
				<polygon class="st15" points="-3105.7,-1681.8 -3121.6,-1681.8 -3121.6,-1340.5 -3105.7,-1345.2 				"/>
				<polygon class="st15" points="-3071.5,-1681.8 -3087.4,-1681.8 -3087.4,-1350.5 -3071.5,-1355.2 				"/>
			</g>
			<path class="st15" d="M-3045.6-1978.4v635l-205.3,59.9l-205.3-59.9v-635H-3045.6 M-3019.9-2004.2h-462v680.1l231,67.5l231-67.5
				V-2004.2L-3019.9-2004.2z"/>
			<g>
				<path class="st15" d="M-3384.5-1692.2L-3430-1945h28.2l33.4,207.6l0.8,11.5l3.3-11.1l73.7-207.9h27.1l-93.7,252.8H-3384.5z"/>
				<path class="st15" d="M-3236.6-1945h39.2l-24.4,252.8h-39.2L-3236.6-1945z M-3200.4-1806.9c1.3-3.7,2.8-7.7,4.7-12
					c1.8-4.3,4.1-8.2,6.7-11.6c2.6-3.5,5.6-6.4,8.8-8.7c3.2-2.3,6.8-3.5,10.8-3.5h48.5l9.9-102.2h38.6l-24.4,252.8h-38.6l11-114.7
					H-3200.4z"/>
			</g>
		</g>
	</g>
	<g class="st1">
		<rect x="-4483.4" y="-796.1" class="st2" width="497.2" height="804.5"/>
	</g>
	<g class="st1">
		<g>
			<g>
				<path class="st15" d="M-3422-471.9c-16.4-94.9-32.7-188.2-48.9-279.2c10.1-1.6,20.2-3.1,30.3-4.5c12,76.2,24,153.6,36.1,231.8
					c0.3,4.3,0.6,8.7,0.9,13c1.2-4.3,2.4-8.5,3.6-12.8c26.6-79.9,53.2-161.2,79.9-242.2c9.8-0.3,19.6-0.6,29.5-0.7
					c-33.9,97.9-67.8,197-101.6,293.8C-3402.3-472.4-3412.1-472.2-3422-471.9z"/>
				<path class="st15" d="M-3261.6-766.4c14.2,0.2,28.4,0.6,42.5,1.3c-8.8,96.8-17.6,194-26.5,291.4c-14.2-0.1-28.4-0.1-42.6-0.1
					C-3279.3-571.3-3270.4-668.9-3261.6-766.4z M-3222.3-605.9c1.4-4.2,3.1-8.8,5.1-13.7c2-4.9,4.4-9.3,7.3-13.2
					c2.9-3.9,6-7.1,9.5-9.6c3.5-2.5,7.4-3.7,11.7-3.5c17.5,0.9,35,2,52.4,3.3c3.5-38.3,7.1-76.5,10.6-114.5
					c13.9,1.7,27.7,3.7,41.5,5.9c-8.7,92.2-17.5,185.6-26.2,279.9c-13.9-0.4-27.8-0.8-41.7-1.1c3.9-43.4,7.9-86.7,11.8-129.9
					C-3167.5-604-3194.9-605.2-3222.3-605.9z"/>
			</g>
			<g>
				<path class="st15" d="M-3055.7-774.3c0,222.8,0,445.6,0,668.4c-73,41-147.2,80-221.4,111.8c-74.2-31.8-148.4-70.8-221.4-111.8
					c0-222.8,0-445.6,0-668.4C-3352.5-803.2-3201.6-803.2-3055.7-774.3 M-3028.5-796.1c-163.4-39.2-333.8-39.2-497.2,0
					c0,234.8,0,469.6,0,704.5C-3444-43.6-3360.5,2-3277.1,37.8c83.4-35.8,166.9-81.4,248.6-129.4
					C-3028.5-326.5-3028.5-561.3-3028.5-796.1L-3028.5-796.1z"/>
			</g>
			<g>
				<path class="st15" d="M-3360.4-61.7c5.7,2.6,11.5,5.2,17.2,7.8c0-129.9,0-259.8,0-389.7c-5.7,0-11.5,0.1-17.2,0.1
					C-3360.4-316.2-3360.4-188.9-3360.4-61.7z"/>
				<path class="st15" d="M-3397.3-79c5.7,2.7,11.4,5.4,17.2,8.1c0-124.1,0-248.3,0-372.4c-5.7,0.1-11.5,0.1-17.2,0.2
					C-3397.3-321.7-3397.3-200.3-3397.3-79z"/>
				<path class="st15" d="M-3470.9-115.5c5.7,2.9,11.4,5.8,17,8.7c0-111.8,0-223.5,0-335.3c-5.7,0.1-11.4,0.2-17,0.3
					C-3470.9-333-3470.9-224.2-3470.9-115.5z"/>
				<path class="st15" d="M-3101.4-106.2c5.7-2.9,11.4-5.8,17-8.7c0-109,0-217.9,0-326.9c-5.7-0.1-11.4-0.2-17-0.3
					C-3101.4-330.2-3101.4-218.2-3101.4-106.2z"/>
				<path class="st15" d="M-3434.2-96.9c5.7,2.8,11.4,5.6,17.1,8.4c0-118.1,0-236.2,0-354.2c-5.7,0.1-11.4,0.2-17.1,0.3
					C-3434.2-327.3-3434.2-212.1-3434.2-96.9z"/>
				<path class="st15" d="M-3323.3-45.2c5.7,2.5,11.5,4.9,17.2,7.4c0-135.3,0-270.6,0-405.9c-5.7,0-11.5,0-17.2,0.1
					C-3323.3-310.9-3323.3-178-3323.3-45.2z"/>
				<path class="st15" d="M-3175.1-70.3c5.7-2.7,11.5-5.4,17.2-8.1c0-121.5,0-243.1,0-364.6c-5.7-0.1-11.4-0.1-17.2-0.2
					C-3175.1-318.9-3175.1-194.6-3175.1-70.3z"/>
				<path class="st15" d="M-3138.2-88c5.7-2.8,11.4-5.6,17.1-8.4c0-115.4,0-230.7,0-346.1c-5.7-0.1-11.4-0.2-17.1-0.3
					C-3138.2-324.5-3138.2-206.2-3138.2-88z"/>
				<path class="st15" d="M-3286.2-29.6c3.1,1.2,6.1,2.5,9.2,3.7c2.7-1.1,5.4-2.2,8.1-3.2c0-138.2,0-276.4,0-414.6
					c-5.7,0-11.5,0-17.2,0C-3286.2-305.8-3286.2-167.7-3286.2-29.6z"/>
				<path class="st15" d="M-3249.2-37.4c5.7-2.4,11.5-4.9,17.2-7.3c0-133,0-266,0-399c-5.7,0-11.5-0.1-17.2-0.1
					C-3249.2-308.3-3249.2-172.8-3249.2-37.4z"/>
				<path class="st15" d="M-3212.1-53.4c5.7-2.6,11.5-5.1,17.2-7.8c0-127.4,0-254.9,0-382.3c-5.7-0.1-11.5-0.1-17.2-0.1
					C-3212.1-313.5-3212.1-183.5-3212.1-53.4z"/>
			</g>
		</g>
	</g>
</g>
<g id="Portrait">
	<g>
		<g>
			<g>
				<path class="st15" d="M-531.5-1730.7c-16-92.7-31.9-183.8-47.8-272.6c9.9-1.6,19.7-3,29.6-4.4c11.7,74.4,23.5,149.9,35.2,226.4
					c0.3,4.2,0.6,8.5,0.9,12.7c1.2-4.2,2.3-8.3,3.5-12.5c25.9-78,51.9-157.4,78-236.5c9.6-0.3,19.2-0.6,28.8-0.7
					c-33.1,95.6-66.2,192.3-99.2,286.9C-512.2-1731.2-521.9-1730.9-531.5-1730.7z"/>
				<path class="st15" d="M-374.9-2018.2c13.9,0.2,27.7,0.6,41.5,1.2c-8.6,94.5-17.2,189.5-25.9,284.6c-13.8-0.1-27.7-0.1-41.6-0.1
					C-392.1-1827.8-383.5-1923.1-374.9-2018.2z M-336.5-1861.6c1.3-4.1,3-8.6,4.9-13.4c1.9-4.8,4.3-9.1,7.1-12.9
					c2.8-3.8,5.9-7,9.3-9.4c3.4-2.5,7.2-3.6,11.5-3.4c17.1,0.8,34.2,1.9,51.2,3.3c3.5-37.4,6.9-74.7,10.4-111.8
					c13.6,1.7,27.1,3.6,40.6,5.7c-8.5,90-17,181.2-25.6,273.3c-13.5-0.4-27.1-0.7-40.7-1c3.9-42.4,7.7-84.7,11.6-126.8
					C-283-1859.7-309.7-1860.9-336.5-1861.6z"/>
			</g>
			<g>
				<path class="st15" d="M-173.8-2026c0,217.6,0,435.1,0,652.7c-71.3,40.1-143.7,78.1-216.2,109.2
					c-72.5-31.1-144.9-69.1-216.2-109.2c0-217.6,0-435.1,0-652.7C-463.7-2054.2-316.3-2054.2-173.8-2026 M-147.2-2047.3
					c-159.6-38.3-325.9-38.3-485.5,0c0,229.3,0,458.6,0,687.9c79.8,46.9,161.3,91.5,242.8,126.4c81.5-34.9,163-79.4,242.8-126.4
					C-147.2-1588.7-147.2-1818-147.2-2047.3L-147.2-2047.3z"/>
			</g>
			<g>
				<path class="st15" d="M-471.3-1330.1c5.6,2.6,11.2,5.1,16.8,7.6c0-126.8,0-253.7,0-380.5c-5.6,0-11.2,0.1-16.8,0.1
					C-471.3-1578.6-471.3-1454.3-471.3-1330.1z"/>
				<path class="st15" d="M-507.4-1347c5.6,2.7,11.2,5.3,16.8,7.9c0-121.2,0-242.4,0-363.7c-5.6,0.1-11.2,0.1-16.8,0.2
					C-507.4-1584-507.4-1465.5-507.4-1347z"/>
				<path class="st15" d="M-579.3-1382.6c5.5,2.8,11.1,5.7,16.6,8.5c0-109.1,0-218.3,0-327.4c-5.6,0.1-11.1,0.2-16.6,0.3
					C-579.3-1595-579.3-1488.8-579.3-1382.6z"/>
				<path class="st15" d="M-218.4-1373.6c5.6-2.8,11.1-5.6,16.6-8.5c0-106.4,0-212.8,0-319.2c-5.5-0.1-11.1-0.2-16.6-0.3
					C-218.4-1592.3-218.4-1482.9-218.4-1373.6z"/>
				<path class="st15" d="M-543.4-1364.5c5.6,2.8,11.1,5.5,16.7,8.2c0-115.3,0-230.6,0-345.9c-5.6,0.1-11.1,0.2-16.7,0.3
					C-543.4-1589.5-543.4-1477-543.4-1364.5z"/>
				<path class="st15" d="M-435.2-1314c5.6,2.4,11.2,4.8,16.8,7.2c0-132.1,0-264.3,0-396.4c-5.6,0-11.2,0-16.8,0.1
					C-435.2-1573.4-435.2-1443.7-435.2-1314z"/>
				<path class="st15" d="M-290.4-1338.5c5.6-2.6,11.2-5.3,16.8-7.9c0-118.7,0-237.4,0-356c-5.6-0.1-11.2-0.1-16.8-0.2
					C-290.4-1581.3-290.4-1459.9-290.4-1338.5z"/>
				<path class="st15" d="M-254.4-1355.8c5.6-2.7,11.1-5.5,16.7-8.2c0-112.7,0-225.3,0-338c-5.6-0.1-11.1-0.2-16.7-0.3
					C-254.4-1586.7-254.4-1471.2-254.4-1355.8z"/>
				<path class="st15" d="M-399-1298.8c3,1.2,6,2.4,9,3.6c2.6-1,5.3-2.1,7.9-3.2c0-135,0-269.9,0-404.9c-5.6,0-11.2,0-16.8,0
					C-399-1568.4-399-1433.6-399-1298.8z"/>
				<path class="st15" d="M-362.7-1306.3c5.6-2.4,11.2-4.7,16.8-7.2c0-129.9,0-259.8,0-389.6c-5.6,0-11.2,0-16.8-0.1
					C-362.7-1570.9-362.7-1438.6-362.7-1306.3z"/>
				<path class="st15" d="M-326.5-1322c5.6-2.5,11.2-5,16.8-7.6c0-124.4,0-248.9,0-373.3c-5.6-0.1-11.2-0.1-16.8-0.1
					C-326.5-1576-326.5-1449-326.5-1322z"/>
			</g>
		</g>
		<g>
			<path class="st15" d="M-720.6-1078.3L-742-1197h13.3l15.7,97.5l0.4,5.4l1.5-5.2l34.6-97.7h12.7l-44,118.8H-720.6z"/>
			<path class="st15" d="M-651.1-1197h53.3l-1.2,11.8h-41.1l-9.3,95.2h43l-1,11.8h-55.2L-651.1-1197z M-607.1-1146.2l-1.2,11.4
				h-31.8c1.2-3.2,2.8-5.9,4.7-8.1c1.9-2.2,4.4-3.3,7.5-3.3H-607.1z"/>
			<path class="st15" d="M-576.9-1197h12.2l-11.5,118.8h-12.2L-576.9-1197z M-522.7-1146.2l4.9-50.8h12.2l-11.5,118.8h-12.2
				l5.4-56.5h-42c1.2-3.2,2.8-5.9,4.7-8.1c1.9-2.2,4.4-3.3,7.4-3.3H-522.7z"/>
			<path class="st15" d="M-482.5-1078.3h-11.8l11.5-118.8h11.8L-482.5-1078.3z"/>
			<path class="st15" d="M-415.5-1076.3c-6.6,0-12.6-1.4-18-4.2c-5.4-2.8-9.9-6.9-13.6-12.2c-3.6-5.3-6.3-11.7-8-19.2
				c-1.7-7.5-2-16-1.1-25.5c0.9-9.1,2.8-17.5,5.9-25c3.1-7.6,7-14.1,11.7-19.5c4.7-5.4,10.1-9.7,16-12.6c6-3,12.2-4.5,18.9-4.5
				c3.6,0,7.3,0.5,11,1.4c3.7,0.9,7.5,2.3,11.3,4.1l-4.4,10.5c-3.6-1.5-6.9-2.6-10-3.3c-3-0.7-6.1-1-9.1-1c-4.5,0-8.8,1-13,3.1
				c-4.2,2.1-8,5.2-11.5,9.3c-3.5,4.1-6.4,9.3-8.9,15.6c-2.4,6.3-4.1,13.5-4.8,21.8c-0.7,7.4-0.4,14.1,0.8,20.2
				c1.2,6,3.2,11.2,5.8,15.6c2.6,4.4,5.8,7.7,9.7,10c3.8,2.3,8,3.5,12.4,3.5c3,0,6.1-0.5,9.4-1.5c3.3-1,6.8-2.6,10.7-4.9l2.3,10.6
				c-4.3,2.7-8.4,4.7-12.3,5.8C-408.1-1076.9-411.9-1076.3-415.5-1076.3z"/>
			<path class="st15" d="M-365-1197h18.4l-11.5,118.8h-18.4L-365-1197z M-348-1132.2c0.6-1.7,1.3-3.6,2.2-5.6c0.9-2,1.9-3.8,3.2-5.5
				c1.2-1.6,2.6-3,4.1-4.1c1.5-1.1,3.2-1.6,5.1-1.6h22.8l4.6-48h18.1l-11.5,118.8h-18.1l5.1-53.9H-348z"/>
			<path class="st15" d="M-257.6-1104.3l-9.3,26H-285l45-118.8h18l22.1,118.8h-19l-14.7-88.4l-0.5-6l-1.7,6.4l-15.1,42.3l-1.9,3.3
				l2.1-0.3h9.8c1.9,0,3.5,0.5,4.8,1.6c1.3,1.1,2.4,2.5,3.2,4.1c0.9,1.6,1.5,3.5,2.1,5.5c0.5,2,0.9,3.9,1.2,5.6H-257.6z"/>
			<path class="st15" d="M-148.1-1076c-5.7,0-10.8-1-15.3-3.1c-4.4-2.1-8.1-5.1-10.9-9.1c-2.9-4-4.9-9-6-14.9
				c-1.2-5.9-1.4-12.8-0.6-20.5l7.1-73.3h18.1l-7.3,75.8c-0.4,4.5-0.3,8.4,0.3,11.9c0.6,3.5,1.7,6.5,3.2,8.9
				c1.5,2.5,3.4,4.3,5.6,5.6c2.2,1.3,4.7,2,7.5,2c2.7,0,5.4-0.7,7.9-2c2.5-1.3,4.7-3.2,6.7-5.6c2-2.5,3.6-5.4,5-8.9
				c1.3-3.5,2.2-7.5,2.6-11.9l7.3-75.8h18l-7.1,73.3c-0.7,7.2-2.2,13.7-4.5,19.6c-2.3,5.9-5.3,10.9-8.9,15.1
				c-3.6,4.2-7.8,7.4-12.7,9.6C-137-1077.1-142.3-1076-148.1-1076z"/>
			<path class="st15" d="M-80.4-1197h18.5l-9.9,101.9H-38l-1.5,16.8h-52.3L-80.4-1197z"/>
		</g>
	</g>
	<g>
		<g>
			<g>
				<path class="st16" d="M-531.5-686.7c-16-92.7-31.9-183.8-47.8-272.6c9.9-1.6,19.7-3,29.6-4.4c11.7,74.4,23.5,149.9,35.2,226.4
					c0.3,4.2,0.6,8.5,0.9,12.7c1.2-4.2,2.3-8.3,3.5-12.5c25.9-78,51.9-157.4,78-236.5c9.6-0.3,19.2-0.6,28.8-0.7
					c-33.1,95.6-66.2,192.3-99.2,286.9C-512.2-687.2-521.9-686.9-531.5-686.7z"/>
				<path class="st16" d="M-374.9-974.2c13.9,0.2,27.7,0.6,41.5,1.2c-8.6,94.5-17.2,189.5-25.9,284.6c-13.8-0.1-27.7-0.1-41.6-0.1
					C-392.1-783.8-383.5-879.1-374.9-974.2z M-336.5-817.6c1.3-4.1,3-8.6,4.9-13.4c1.9-4.8,4.3-9.1,7.1-12.9c2.8-3.8,5.9-7,9.3-9.4
					c3.4-2.5,7.2-3.6,11.5-3.4c17.1,0.8,34.2,1.9,51.2,3.3c3.5-37.4,6.9-74.7,10.4-111.8c13.6,1.7,27.1,3.6,40.6,5.7
					c-8.5,90-17,181.2-25.6,273.3c-13.5-0.4-27.1-0.7-40.7-1c3.9-42.4,7.7-84.7,11.6-126.8C-283-815.7-309.7-816.9-336.5-817.6z"/>
			</g>
			<g>
				<path class="st16" d="M-173.8-982c0,217.6,0,435.1,0,652.7c-71.3,40.1-143.7,78.1-216.2,109.2
					c-72.5-31.1-144.9-69.1-216.2-109.2c0-217.6,0-435.1,0-652.7C-463.7-1010.2-316.3-1010.2-173.8-982 M-147.2-1003.3
					c-159.6-38.3-325.9-38.3-485.5,0c0,229.3,0,458.6,0,687.9C-553-268.4-471.5-223.9-390-189c81.5-34.9,163-79.4,242.8-126.4
					C-147.2-544.7-147.2-774-147.2-1003.3L-147.2-1003.3z"/>
			</g>
			<g>
				<path class="st16" d="M-471.3-286.1c5.6,2.6,11.2,5.1,16.8,7.6c0-126.8,0-253.7,0-380.5c-5.6,0-11.2,0.1-16.8,0.1
					C-471.3-534.6-471.3-410.3-471.3-286.1z"/>
				<path class="st16" d="M-507.4-303c5.6,2.7,11.2,5.3,16.8,7.9c0-121.2,0-242.4,0-363.7c-5.6,0.1-11.2,0.1-16.8,0.2
					C-507.4-540-507.4-421.5-507.4-303z"/>
				<path class="st16" d="M-579.3-338.6c5.5,2.8,11.1,5.7,16.6,8.5c0-109.1,0-218.3,0-327.4c-5.6,0.1-11.1,0.2-16.6,0.3
					C-579.3-551-579.3-444.8-579.3-338.6z"/>
				<path class="st16" d="M-218.4-329.6c5.6-2.8,11.1-5.6,16.6-8.5c0-106.4,0-212.8,0-319.2c-5.5-0.1-11.1-0.2-16.6-0.3
					C-218.4-548.3-218.4-438.9-218.4-329.6z"/>
				<path class="st16" d="M-543.4-320.5c5.6,2.8,11.1,5.5,16.7,8.2c0-115.3,0-230.6,0-345.9c-5.6,0.1-11.1,0.2-16.7,0.3
					C-543.4-545.5-543.4-433-543.4-320.5z"/>
				<path class="st16" d="M-435.2-270c5.6,2.4,11.2,4.8,16.8,7.2c0-132.1,0-264.3,0-396.4c-5.6,0-11.2,0-16.8,0.1
					C-435.2-529.4-435.2-399.7-435.2-270z"/>
				<path class="st16" d="M-290.4-294.5c5.6-2.6,11.2-5.3,16.8-7.9c0-118.7,0-237.4,0-356c-5.6-0.1-11.2-0.1-16.8-0.2
					C-290.4-537.3-290.4-415.9-290.4-294.5z"/>
				<path class="st16" d="M-254.4-311.8c5.6-2.7,11.1-5.5,16.7-8.2c0-112.7,0-225.3,0-338c-5.6-0.1-11.1-0.2-16.7-0.3
					C-254.4-542.7-254.4-427.2-254.4-311.8z"/>
				<path class="st16" d="M-399-254.8c3,1.2,6,2.4,9,3.6c2.6-1,5.3-2.1,7.9-3.2c0-135,0-269.9,0-404.9c-5.6,0-11.2,0-16.8,0
					C-399-524.4-399-389.6-399-254.8z"/>
				<path class="st16" d="M-362.7-262.3c5.6-2.4,11.2-4.7,16.8-7.2c0-129.9,0-259.8,0-389.6c-5.6,0-11.2,0-16.8-0.1
					C-362.7-526.9-362.7-394.6-362.7-262.3z"/>
				<path class="st16" d="M-326.5-278c5.6-2.5,11.2-5,16.8-7.6c0-124.4,0-248.9,0-373.3c-5.6-0.1-11.2-0.1-16.8-0.1
					C-326.5-532-326.5-405-326.5-278z"/>
			</g>
		</g>
		<g>
			<path class="st16" d="M-720.6-34.3L-742-153h13.3l15.7,97.5l0.4,5.4l1.5-5.2l34.6-97.7h12.7l-44,118.8H-720.6z"/>
			<path class="st16" d="M-651.1-153h53.3l-1.2,11.8h-41.1l-9.3,95.2h43l-1,11.8h-55.2L-651.1-153z M-607.1-102.2l-1.2,11.4h-31.8
				c1.2-3.2,2.8-5.9,4.7-8.1c1.9-2.2,4.4-3.3,7.5-3.3H-607.1z"/>
			<path class="st16" d="M-576.9-153h12.2l-11.5,118.8h-12.2L-576.9-153z M-522.7-102.2l4.9-50.8h12.2L-517-34.3h-12.2l5.4-56.5h-42
				c1.2-3.2,2.8-5.9,4.7-8.1c1.9-2.2,4.4-3.3,7.4-3.3H-522.7z"/>
			<path class="st16" d="M-482.5-34.3h-11.8l11.5-118.8h11.8L-482.5-34.3z"/>
			<path class="st16" d="M-415.5-32.3c-6.6,0-12.6-1.4-18-4.2c-5.4-2.8-9.9-6.9-13.6-12.2c-3.6-5.3-6.3-11.7-8-19.2
				c-1.7-7.5-2-16-1.1-25.5c0.9-9.1,2.8-17.5,5.9-25c3.1-7.6,7-14.1,11.7-19.5c4.7-5.4,10.1-9.7,16-12.6c6-3,12.2-4.5,18.9-4.5
				c3.6,0,7.3,0.5,11,1.4c3.7,0.9,7.5,2.3,11.3,4.1l-4.4,10.5c-3.6-1.5-6.9-2.6-10-3.3c-3-0.7-6.1-1-9.1-1c-4.5,0-8.8,1-13,3.1
				c-4.2,2.1-8,5.2-11.5,9.3c-3.5,4.1-6.4,9.3-8.9,15.6c-2.4,6.3-4.1,13.5-4.8,21.8c-0.7,7.4-0.4,14.1,0.8,20.2
				c1.2,6,3.2,11.2,5.8,15.6c2.6,4.4,5.8,7.7,9.7,10c3.8,2.3,8,3.5,12.4,3.5c3,0,6.1-0.5,9.4-1.5c3.3-1,6.8-2.6,10.7-4.9l2.3,10.6
				c-4.3,2.7-8.4,4.7-12.3,5.8C-408.1-32.9-411.9-32.3-415.5-32.3z"/>
			<path class="st16" d="M-365-153h18.4l-11.5,118.8h-18.4L-365-153z M-348-88.2c0.6-1.7,1.3-3.6,2.2-5.6c0.9-2,1.9-3.8,3.2-5.5
				c1.2-1.6,2.6-3,4.1-4.1c1.5-1.1,3.2-1.6,5.1-1.6h22.8l4.6-48h18.1l-11.5,118.8h-18.1l5.1-53.9H-348z"/>
			<path class="st16" d="M-257.6-60.3l-9.3,26H-285l45-118.8h18l22.1,118.8h-19l-14.7-88.4l-0.5-6l-1.7,6.4L-250.8-80l-1.9,3.3
				l2.1-0.3h9.8c1.9,0,3.5,0.5,4.8,1.6c1.3,1.1,2.4,2.5,3.2,4.1c0.9,1.6,1.5,3.5,2.1,5.5c0.5,2,0.9,3.9,1.2,5.6H-257.6z"/>
			<path class="st16" d="M-148.1-32c-5.7,0-10.8-1-15.3-3.1c-4.4-2.1-8.1-5.1-10.9-9.1c-2.9-4-4.9-9-6-14.9
				c-1.2-5.9-1.4-12.8-0.6-20.5l7.1-73.3h18.1l-7.3,75.8c-0.4,4.5-0.3,8.4,0.3,11.9c0.6,3.5,1.7,6.5,3.2,8.9
				c1.5,2.5,3.4,4.3,5.6,5.6c2.2,1.3,4.7,2,7.5,2c2.7,0,5.4-0.7,7.9-2c2.5-1.3,4.7-3.2,6.7-5.6c2-2.5,3.6-5.4,5-8.9
				c1.3-3.5,2.2-7.5,2.6-11.9l7.3-75.8h18l-7.1,73.3c-0.7,7.2-2.2,13.7-4.5,19.6c-2.3,5.9-5.3,10.9-8.9,15.1
				c-3.6,4.2-7.8,7.4-12.7,9.6C-137-33.1-142.3-32-148.1-32z"/>
			<path class="st16" d="M-80.4-153h18.5l-9.9,101.9H-38l-1.5,16.8h-52.3L-80.4-153z"/>
		</g>
	</g>
	<g>
		<g>
			<g>
				<path class="st17" d="M-531.5,357.3c-16-92.7-31.9-183.8-47.8-272.6c9.9-1.6,19.7-3,29.6-4.4c11.7,74.4,23.5,149.9,35.2,226.4
					c0.3,4.2,0.6,8.5,0.9,12.7c1.2-4.2,2.3-8.3,3.5-12.5c25.9-78,51.9-157.4,78-236.5c9.6-0.3,19.2-0.6,28.8-0.7
					c-33.1,95.6-66.2,192.3-99.2,286.9C-512.2,356.8-521.9,357.1-531.5,357.3z"/>
				<path class="st17" d="M-374.9,69.8c13.9,0.2,27.7,0.6,41.5,1.2c-8.6,94.5-17.2,189.5-25.9,284.6c-13.8-0.1-27.7-0.1-41.6-0.1
					C-392.1,260.2-383.5,164.9-374.9,69.8z M-336.5,226.4c1.3-4.1,3-8.6,4.9-13.4c1.9-4.8,4.3-9.1,7.1-12.9c2.8-3.8,5.9-7,9.3-9.4
					c3.4-2.5,7.2-3.6,11.5-3.4c17.1,0.8,34.2,1.9,51.2,3.3c3.5-37.4,6.9-74.7,10.4-111.8c13.6,1.7,27.1,3.6,40.6,5.7
					c-8.5,90-17,181.2-25.6,273.3c-13.5-0.4-27.1-0.7-40.7-1c3.9-42.4,7.7-84.7,11.6-126.8C-283,228.3-309.7,227.1-336.5,226.4z"/>
			</g>
			<g>
				<path class="st17" d="M-173.8,62c0,217.6,0,435.1,0,652.7c-71.3,40.1-143.7,78.1-216.2,109.2c-72.5-31.1-144.9-69.1-216.2-109.2
					c0-217.6,0-435.1,0-652.7C-463.7,33.8-316.3,33.8-173.8,62 M-147.2,40.7c-159.6-38.3-325.9-38.3-485.5,0
					c0,229.3,0,458.6,0,687.9C-553,775.6-471.5,820.1-390,855c81.5-34.9,163-79.4,242.8-126.4C-147.2,499.3-147.2,270-147.2,40.7
					L-147.2,40.7z"/>
			</g>
			<g>
				<path class="st17" d="M-471.3,757.9c5.6,2.6,11.2,5.1,16.8,7.6c0-126.8,0-253.7,0-380.5c-5.6,0-11.2,0.1-16.8,0.1
					C-471.3,509.4-471.3,633.7-471.3,757.9z"/>
				<path class="st17" d="M-507.4,741c5.6,2.7,11.2,5.3,16.8,7.9c0-121.2,0-242.4,0-363.7c-5.6,0.1-11.2,0.1-16.8,0.2
					C-507.4,504-507.4,622.5-507.4,741z"/>
				<path class="st17" d="M-579.3,705.4c5.5,2.8,11.1,5.7,16.6,8.5c0-109.1,0-218.3,0-327.4c-5.6,0.1-11.1,0.2-16.6,0.3
					C-579.3,493-579.3,599.2-579.3,705.4z"/>
				<path class="st17" d="M-218.4,714.4c5.6-2.8,11.1-5.6,16.6-8.5c0-106.4,0-212.8,0-319.2c-5.5-0.1-11.1-0.2-16.6-0.3
					C-218.4,495.7-218.4,605.1-218.4,714.4z"/>
				<path class="st17" d="M-543.4,723.5c5.6,2.8,11.1,5.5,16.7,8.2c0-115.3,0-230.6,0-345.9c-5.6,0.1-11.1,0.2-16.7,0.3
					C-543.4,498.5-543.4,611-543.4,723.5z"/>
				<path class="st17" d="M-435.2,774c5.6,2.4,11.2,4.8,16.8,7.2c0-132.1,0-264.3,0-396.4c-5.6,0-11.2,0-16.8,0.1
					C-435.2,514.6-435.2,644.3-435.2,774z"/>
				<path class="st17" d="M-290.4,749.5c5.6-2.6,11.2-5.3,16.8-7.9c0-118.7,0-237.4,0-356c-5.6-0.1-11.2-0.1-16.8-0.2
					C-290.4,506.7-290.4,628.1-290.4,749.5z"/>
				<path class="st17" d="M-254.4,732.2c5.6-2.7,11.1-5.5,16.7-8.2c0-112.7,0-225.3,0-338c-5.6-0.1-11.1-0.2-16.7-0.3
					C-254.4,501.3-254.4,616.8-254.4,732.2z"/>
				<path class="st17" d="M-399,789.2c3,1.2,6,2.4,9,3.6c2.6-1,5.3-2.1,7.9-3.2c0-135,0-269.9,0-404.9c-5.6,0-11.2,0-16.8,0
					C-399,519.6-399,654.4-399,789.2z"/>
				<path class="st17" d="M-362.7,781.7c5.6-2.4,11.2-4.7,16.8-7.2c0-129.9,0-259.8,0-389.6c-5.6,0-11.2,0-16.8-0.1
					C-362.7,517.1-362.7,649.4-362.7,781.7z"/>
				<path class="st17" d="M-326.5,766c5.6-2.5,11.2-5,16.8-7.6c0-124.4,0-248.9,0-373.3c-5.6-0.1-11.2-0.1-16.8-0.1
					C-326.5,512-326.5,639-326.5,766z"/>
			</g>
		</g>
		<g>
			<path class="st17" d="M-720.6,1009.7L-742,891h13.3l15.7,97.5l0.4,5.4l1.5-5.2l34.6-97.7h12.7l-44,118.8H-720.6z"/>
			<path class="st17" d="M-651.1,891h53.3l-1.2,11.8h-41.1l-9.3,95.2h43l-1,11.8h-55.2L-651.1,891z M-607.1,941.8l-1.2,11.4h-31.8
				c1.2-3.2,2.8-5.9,4.7-8.1c1.9-2.2,4.4-3.3,7.5-3.3H-607.1z"/>
			<path class="st17" d="M-576.9,891h12.2l-11.5,118.8h-12.2L-576.9,891z M-522.7,941.8l4.9-50.8h12.2l-11.5,118.8h-12.2l5.4-56.5
				h-42c1.2-3.2,2.8-5.9,4.7-8.1c1.9-2.2,4.4-3.3,7.4-3.3H-522.7z"/>
			<path class="st17" d="M-482.5,1009.7h-11.8l11.5-118.8h11.8L-482.5,1009.7z"/>
			<path class="st17" d="M-415.5,1011.7c-6.6,0-12.6-1.4-18-4.2c-5.4-2.8-9.9-6.9-13.6-12.2c-3.6-5.3-6.3-11.7-8-19.2
				c-1.7-7.5-2-16-1.1-25.5c0.9-9.1,2.8-17.5,5.9-25c3.1-7.6,7-14.1,11.7-19.5c4.7-5.4,10.1-9.7,16-12.6c6-3,12.2-4.5,18.9-4.5
				c3.6,0,7.3,0.5,11,1.4c3.7,0.9,7.5,2.3,11.3,4.1l-4.4,10.5c-3.6-1.5-6.9-2.6-10-3.3c-3-0.7-6.1-1-9.1-1c-4.5,0-8.8,1-13,3.1
				c-4.2,2.1-8,5.2-11.5,9.3c-3.5,4.1-6.4,9.3-8.9,15.6c-2.4,6.3-4.1,13.5-4.8,21.8c-0.7,7.4-0.4,14.1,0.8,20.2
				c1.2,6,3.2,11.2,5.8,15.6c2.6,4.4,5.8,7.7,9.7,10c3.8,2.3,8,3.5,12.4,3.5c3,0,6.1-0.5,9.4-1.5c3.3-1,6.8-2.6,10.7-4.9l2.3,10.6
				c-4.3,2.7-8.4,4.7-12.3,5.8C-408.1,1011.1-411.9,1011.7-415.5,1011.7z"/>
			<path class="st17" d="M-365,891h18.4l-11.5,118.8h-18.4L-365,891z M-348,955.8c0.6-1.7,1.3-3.6,2.2-5.6c0.9-2,1.9-3.8,3.2-5.5
				c1.2-1.6,2.6-3,4.1-4.1c1.5-1.1,3.2-1.6,5.1-1.6h22.8l4.6-48h18.1l-11.5,118.8h-18.1l5.1-53.9H-348z"/>
			<path class="st17" d="M-257.6,983.7l-9.3,26H-285l45-118.8h18l22.1,118.8h-19l-14.7-88.4l-0.5-6l-1.7,6.4l-15.1,42.3l-1.9,3.3
				l2.1-0.3h9.8c1.9,0,3.5,0.5,4.8,1.6c1.3,1.1,2.4,2.5,3.2,4.1c0.9,1.6,1.5,3.5,2.1,5.5c0.5,2,0.9,3.9,1.2,5.6H-257.6z"/>
			<path class="st17" d="M-148.1,1012c-5.7,0-10.8-1-15.3-3.1c-4.4-2.1-8.1-5.1-10.9-9.1c-2.9-4-4.9-9-6-14.9
				c-1.2-5.9-1.4-12.8-0.6-20.5l7.1-73.3h18.1l-7.3,75.8c-0.4,4.5-0.3,8.4,0.3,11.9c0.6,3.5,1.7,6.5,3.2,8.9
				c1.5,2.5,3.4,4.3,5.6,5.6c2.2,1.3,4.7,2,7.5,2c2.7,0,5.4-0.7,7.9-2c2.5-1.3,4.7-3.2,6.7-5.6c2-2.5,3.6-5.4,5-8.9
				c1.3-3.5,2.2-7.5,2.6-11.9l7.3-75.8h18l-7.1,73.3c-0.7,7.2-2.2,13.7-4.5,19.6c-2.3,5.9-5.3,10.9-8.9,15.1
				c-3.6,4.2-7.8,7.4-12.7,9.6C-137,1010.9-142.3,1012-148.1,1012z"/>
			<path class="st17" d="M-80.4,891h18.5l-9.9,101.9H-38l-1.5,16.8h-52.3L-80.4,891z"/>
		</g>
	</g>
</g>
<g id="Landscape">
	<g>
		<g>
			<g>
				<path class="st15" d="M35.6-1984.4c-4.5-26.2-9-52-13.5-77.1c2.8-0.4,5.6-0.9,8.4-1.2c3.3,21,6.6,42.4,10,64
					c0.1,1.2,0.2,2.4,0.2,3.6c0.3-1.2,0.7-2.4,1-3.5c7.3-22,14.7-44.5,22-66.8c2.7-0.1,5.4-0.2,8.1-0.2c-9.4,27-18.7,54.4-28,81.1
					C41.1-1984.5,38.3-1984.4,35.6-1984.4z"/>
				<path class="st15" d="M79.9-2065.6c3.9,0,7.8,0.2,11.7,0.3c-2.4,26.7-4.9,53.5-7.3,80.4c-3.9,0-7.8,0-11.7,0
					C75-2011.8,77.4-2038.7,79.9-2065.6z M90.7-2021.3c0.4-1.2,0.8-2.4,1.4-3.8c0.5-1.3,1.2-2.6,2-3.6c0.8-1.1,1.7-2,2.6-2.7
					c1-0.7,2-1,3.2-1c4.8,0.2,9.7,0.5,14.5,0.9c1-10.6,2-21.1,2.9-31.6c3.8,0.5,7.7,1,11.5,1.6c-2.4,25.4-4.8,51.2-7.2,77.3
					c-3.8-0.1-7.7-0.2-11.5-0.3c1.1-12,2.2-23.9,3.3-35.8C105.9-2020.8,98.3-2021.2,90.7-2021.3z"/>
			</g>
			<g>
				<path class="st15" d="M136.7-2067.8c0,61.5,0,123,0,184.5c-20.1,11.3-40.6,22.1-61.1,30.9c-20.5-8.8-41-19.5-61.1-30.9
					c0-61.5,0-123,0-184.5C54.8-2075.8,96.4-2075.8,136.7-2067.8 M144.2-2073.8c-45.1-10.8-92.1-10.8-137.2,0
					c0,64.8,0,129.6,0,194.4c22.6,13.3,45.6,25.8,68.6,35.7c23-9.9,46.1-22.5,68.6-35.7C144.2-1944.2,144.2-2009,144.2-2073.8
					L144.2-2073.8z"/>
			</g>
			<g>
				<path class="st15" d="M52.6-1871.1c1.6,0.7,3.2,1.4,4.8,2.1c0-35.8,0-71.7,0-107.5c-1.6,0-3.2,0-4.8,0
					C52.6-1941.4,52.6-1906.3,52.6-1871.1z"/>
				<path class="st15" d="M42.4-1875.9c1.6,0.8,3.2,1.5,4.7,2.2c0-34.3,0-68.5,0-102.8c-1.6,0-3.2,0-4.7,0.1
					C42.4-1942.9,42.4-1909.4,42.4-1875.9z"/>
				<path class="st15" d="M22.1-1886c1.6,0.8,3.1,1.6,4.7,2.4c0-30.8,0-61.7,0-92.5c-1.6,0-3.1,0.1-4.7,0.1
					C22.1-1946,22.1-1916,22.1-1886z"/>
				<path class="st15" d="M124.1-1883.4c1.6-0.8,3.1-1.6,4.7-2.4c0-30.1,0-60.1,0-90.2c-1.6,0-3.1-0.1-4.7-0.1
					C124.1-1945.2,124.1-1914.3,124.1-1883.4z"/>
				<path class="st15" d="M32.2-1880.9c1.6,0.8,3.1,1.6,4.7,2.3c0-32.6,0-65.2,0-97.8c-1.6,0-3.2,0-4.7,0.1
					C32.2-1944.4,32.2-1912.7,32.2-1880.9z"/>
				<path class="st15" d="M62.8-1866.6c1.6,0.7,3.2,1.4,4.8,2c0-37.3,0-74.7,0-112c-1.6,0-3.2,0-4.8,0
					C62.8-1939.9,62.8-1903.2,62.8-1866.6z"/>
				<path class="st15" d="M103.8-1873.5c1.6-0.7,3.2-1.5,4.7-2.2c0-33.5,0-67.1,0-100.6c-1.6,0-3.2,0-4.7-0.1
					C103.8-1942.1,103.8-1907.8,103.8-1873.5z"/>
				<path class="st15" d="M113.9-1878.4c1.6-0.8,3.2-1.5,4.7-2.3c0-31.8,0-63.7,0-95.5c-1.6,0-3.1-0.1-4.7-0.1
					C113.9-1943.7,113.9-1911,113.9-1878.4z"/>
				<path class="st15" d="M73.1-1862.3c0.8,0.3,1.7,0.7,2.5,1c0.7-0.3,1.5-0.6,2.2-0.9c0-38.1,0-76.3,0-114.4c-1.6,0-3.2,0-4.8,0
					C73.1-1938.5,73.1-1900.4,73.1-1862.3z"/>
				<path class="st15" d="M83.3-1864.4c1.6-0.7,3.2-1.3,4.8-2c0-36.7,0-73.4,0-110.1c-1.6,0-3.2,0-4.8,0
					C83.3-1939.2,83.3-1901.8,83.3-1864.4z"/>
				<path class="st15" d="M93.5-1868.9c1.6-0.7,3.2-1.4,4.8-2.1c0-35.2,0-70.3,0-105.5c-1.6,0-3.2,0-4.8,0
					C93.5-1940.6,93.5-1904.7,93.5-1868.9z"/>
			</g>
		</g>
		<g>
			<path class="st15" d="M199.8-1904.6l-25.6-142.2h15.9l18.8,116.8l0.5,6.5l1.8-6.3l41.4-116.9h15.3l-52.7,142.2H199.8z"/>
			<path class="st15" d="M283-2046.7h63.8l-1.4,14.1h-49.1l-11.1,114h51.5l-1.2,14.1h-66.1L283-2046.7z M335.7-1985.9l-1.4,13.7
				h-38.1c1.4-3.8,3.3-7,5.6-9.7c2.3-2.7,5.3-4,9-4H335.7z"/>
			<path class="st15" d="M371.9-2046.7h14.6l-13.7,142.2h-14.6L371.9-2046.7z M436.8-1985.9l5.9-60.8h14.6l-13.7,142.2h-14.6
				l6.5-67.7h-50.2c1.4-3.8,3.3-7,5.6-9.7c2.3-2.7,5.3-4,8.9-4H436.8z"/>
			<path class="st15" d="M484.8-1904.6h-14.2l13.7-142.2h14.2L484.8-1904.6z"/>
			<path class="st15" d="M565.1-1902.2c-7.9,0-15.1-1.7-21.6-5.1c-6.5-3.4-11.9-8.2-16.3-14.5c-4.4-6.3-7.5-14-9.6-22.9
				c-2-9-2.4-19.1-1.3-30.5c1-10.9,3.4-20.9,7.1-30c3.7-9,8.4-16.8,14-23.3c5.6-6.5,12-11.6,19.2-15.1c7.1-3.6,14.7-5.4,22.6-5.4
				c4.3,0,8.7,0.5,13.2,1.6c4.5,1.1,9,2.7,13.5,4.9l-5.2,12.6c-4.3-1.8-8.3-3.1-11.9-3.9c-3.6-0.8-7.3-1.2-10.9-1.2
				c-5.3,0-10.5,1.2-15.6,3.7c-5,2.5-9.6,6.2-13.8,11.1c-4.2,5-7.7,11.2-10.6,18.7c-2.9,7.5-4.9,16.2-5.8,26.1
				c-0.8,8.9-0.5,16.9,1,24.2c1.5,7.2,3.8,13.5,6.9,18.7c3.1,5.2,7,9.2,11.6,12c4.6,2.8,9.5,4.2,14.9,4.2c3.6,0,7.3-0.6,11.2-1.8
				c3.9-1.2,8.2-3.1,12.8-5.9l2.8,12.7c-5.1,3.3-10,5.6-14.7,6.9C573.9-1902.9,569.4-1902.2,565.1-1902.2z"/>
			<path class="st15" d="M625.5-2046.7h22l-13.7,142.2h-22L625.5-2046.7z M645.8-1969.1c0.7-2.1,1.6-4.3,2.6-6.7
				c1-2.4,2.3-4.6,3.8-6.6c1.5-2,3.1-3.6,4.9-4.9c1.8-1.3,3.8-2,6.1-2h27.3l5.5-57.5h21.7l-13.7,142.2h-21.7l6.2-64.5H645.8z"/>
			<path class="st15" d="M754.2-1935.6l-11.1,31.1h-21.7l53.9-142.2h21.6l26.5,142.2h-22.8L783-2010.4l-0.6-7.2l-2,7.6l-18,50.7
				l-2.3,3.9l2.5-0.4h11.7c2.3,0,4.2,0.7,5.7,2c1.5,1.3,2.8,2.9,3.9,4.9c1,2,1.8,4.1,2.5,6.6c0.6,2.4,1.1,4.7,1.4,6.7H754.2z"/>
			<path class="st15" d="M885.3-1901.8c-6.9,0-13-1.2-18.3-3.7c-5.3-2.5-9.7-6.1-13.1-11c-3.4-4.8-5.9-10.8-7.2-17.9
				c-1.4-7.1-1.6-15.3-0.7-24.5l8.5-87.8h21.7l-8.8,90.7c-0.5,5.3-0.4,10.1,0.3,14.3c0.7,4.2,2,7.7,3.8,10.7c1.8,2.9,4,5.2,6.7,6.7
				c2.7,1.6,5.6,2.3,8.9,2.3c3.3,0,6.4-0.8,9.4-2.3c3-1.6,5.6-3.8,8-6.7c2.4-2.9,4.3-6.5,5.9-10.7c1.6-4.2,2.6-8.9,3.2-14.3
				l8.8-90.7H944l-8.5,87.8c-0.8,8.6-2.6,16.4-5.4,23.5c-2.8,7-6.3,13.1-10.6,18.1c-4.3,5-9.4,8.9-15.2,11.5
				C898.5-1903.2,892.1-1901.8,885.3-1901.8z"/>
			<path class="st15" d="M966.3-2046.7h22.2l-11.9,122h40.4l-1.8,20.1h-62.6L966.3-2046.7z"/>
		</g>
	</g>
	<g>
		<g>
			<g>
				<path class="st16" d="M35.6-940.4c-4.5-26.2-9-52-13.5-77.1c2.8-0.4,5.6-0.9,8.4-1.2c3.3,21,6.6,42.4,10,64
					c0.1,1.2,0.2,2.4,0.2,3.6c0.3-1.2,0.7-2.4,1-3.5c7.3-22,14.7-44.5,22-66.8c2.7-0.1,5.4-0.2,8.1-0.2c-9.4,27-18.7,54.4-28,81.1
					C41.1-940.5,38.3-940.4,35.6-940.4z"/>
				<path class="st16" d="M79.9-1021.6c3.9,0,7.8,0.2,11.7,0.4c-2.4,26.7-4.9,53.5-7.3,80.4c-3.9,0-7.8,0-11.7,0
					C75-967.8,77.4-994.7,79.9-1021.6z M90.7-977.3c0.4-1.2,0.8-2.4,1.4-3.8c0.5-1.3,1.2-2.6,2-3.6c0.8-1.1,1.7-2,2.6-2.7
					c1-0.7,2-1,3.2-1c4.8,0.2,9.7,0.5,14.5,0.9c1-10.6,2-21.1,2.9-31.6c3.8,0.5,7.7,1,11.5,1.6c-2.4,25.4-4.8,51.2-7.2,77.3
					c-3.8-0.1-7.7-0.2-11.5-0.3c1.1-12,2.2-23.9,3.3-35.8C105.9-976.8,98.3-977.2,90.7-977.3z"/>
			</g>
			<g>
				<path class="st16" d="M136.7-1023.8c0,61.5,0,123,0,184.5c-20.1,11.3-40.6,22.1-61.1,30.9c-20.5-8.8-41-19.5-61.1-30.9
					c0-61.5,0-123,0-184.5C54.8-1031.8,96.4-1031.8,136.7-1023.8 M144.2-1029.8c-45.1-10.8-92.1-10.8-137.2,0C7-965,7-900.2,7-835.4
					c22.6,13.3,45.6,25.8,68.6,35.7c23-9.9,46.1-22.5,68.6-35.7C144.2-900.2,144.2-965,144.2-1029.8L144.2-1029.8z"/>
			</g>
			<g>
				<path class="st16" d="M52.6-827.1c1.6,0.7,3.2,1.4,4.8,2.1c0-35.8,0-71.7,0-107.5c-1.6,0-3.2,0-4.8,0
					C52.6-897.4,52.6-862.3,52.6-827.1z"/>
				<path class="st16" d="M42.4-831.9c1.6,0.8,3.2,1.5,4.7,2.2c0-34.3,0-68.5,0-102.8c-1.6,0-3.2,0-4.7,0.1
					C42.4-898.9,42.4-865.4,42.4-831.9z"/>
				<path class="st16" d="M22.1-842c1.6,0.8,3.1,1.6,4.7,2.4c0-30.8,0-61.7,0-92.5c-1.6,0-3.1,0.1-4.7,0.1
					C22.1-902,22.1-872,22.1-842z"/>
				<path class="st16" d="M124.1-839.4c1.6-0.8,3.1-1.6,4.7-2.4c0-30.1,0-60.1,0-90.2c-1.6,0-3.1-0.1-4.7-0.1
					C124.1-901.2,124.1-870.3,124.1-839.4z"/>
				<path class="st16" d="M32.2-836.9c1.6,0.8,3.1,1.6,4.7,2.3c0-32.6,0-65.2,0-97.8c-1.6,0-3.2,0-4.7,0.1
					C32.2-900.4,32.2-868.7,32.2-836.9z"/>
				<path class="st16" d="M62.8-822.6c1.6,0.7,3.2,1.4,4.8,2c0-37.3,0-74.7,0-112c-1.6,0-3.2,0-4.8,0
					C62.8-895.9,62.8-859.2,62.8-822.6z"/>
				<path class="st16" d="M103.8-829.5c1.6-0.7,3.2-1.5,4.7-2.2c0-33.5,0-67.1,0-100.6c-1.6,0-3.2,0-4.7-0.1
					C103.8-898.1,103.8-863.8,103.8-829.5z"/>
				<path class="st16" d="M113.9-834.4c1.6-0.8,3.2-1.5,4.7-2.3c0-31.8,0-63.7,0-95.5c-1.6,0-3.1-0.1-4.7-0.1
					C113.9-899.7,113.9-867,113.9-834.4z"/>
				<path class="st16" d="M73.1-818.3c0.8,0.3,1.7,0.7,2.5,1c0.7-0.3,1.5-0.6,2.2-0.9c0-38.1,0-76.3,0-114.4c-1.6,0-3.2,0-4.8,0
					C73.1-894.5,73.1-856.4,73.1-818.3z"/>
				<path class="st16" d="M83.3-820.4c1.6-0.7,3.2-1.3,4.8-2c0-36.7,0-73.4,0-110.1c-1.6,0-3.2,0-4.8,0
					C83.3-895.2,83.3-857.8,83.3-820.4z"/>
				<path class="st16" d="M93.5-824.9c1.6-0.7,3.2-1.4,4.8-2.1c0-35.2,0-70.3,0-105.5c-1.6,0-3.2,0-4.8,0
					C93.5-896.6,93.5-860.7,93.5-824.9z"/>
			</g>
		</g>
		<g>
			<path class="st16" d="M199.8-860.6l-25.6-142.2h15.9L208.9-886l0.5,6.5l1.8-6.3l41.4-116.9h15.3l-52.7,142.2H199.8z"/>
			<path class="st16" d="M283-1002.7h63.8l-1.4,14.1h-49.1l-11.1,114h51.5l-1.2,14.1h-66.1L283-1002.7z M335.7-941.9l-1.4,13.7
				h-38.1c1.4-3.8,3.3-7,5.6-9.7c2.3-2.7,5.3-4,9-4H335.7z"/>
			<path class="st16" d="M371.9-1002.7h14.6l-13.7,142.2h-14.6L371.9-1002.7z M436.8-941.9l5.9-60.8h14.6l-13.7,142.2h-14.6
				l6.5-67.7h-50.2c1.4-3.8,3.3-7,5.6-9.7c2.3-2.7,5.3-4,8.9-4H436.8z"/>
			<path class="st16" d="M484.8-860.6h-14.2l13.7-142.2h14.2L484.8-860.6z"/>
			<path class="st16" d="M565.1-858.2c-7.9,0-15.1-1.7-21.6-5.1c-6.5-3.4-11.9-8.2-16.3-14.5c-4.4-6.3-7.5-14-9.6-22.9
				c-2-9-2.4-19.1-1.3-30.5c1-10.9,3.4-20.9,7.1-30c3.7-9,8.4-16.8,14-23.3c5.6-6.5,12-11.6,19.2-15.1c7.1-3.6,14.7-5.4,22.6-5.4
				c4.3,0,8.7,0.5,13.2,1.6c4.5,1.1,9,2.7,13.5,4.9l-5.2,12.6c-4.3-1.8-8.3-3.1-11.9-3.9c-3.6-0.8-7.3-1.2-10.9-1.2
				c-5.3,0-10.5,1.2-15.6,3.7c-5,2.5-9.6,6.2-13.8,11.1c-4.2,5-7.7,11.2-10.6,18.7c-2.9,7.5-4.9,16.2-5.8,26.1
				c-0.8,8.9-0.5,16.9,1,24.2c1.5,7.2,3.8,13.5,6.9,18.7c3.1,5.2,7,9.2,11.6,12c4.6,2.8,9.5,4.2,14.9,4.2c3.6,0,7.3-0.6,11.2-1.8
				c3.9-1.2,8.2-3.1,12.8-5.9l2.8,12.7c-5.1,3.3-10,5.6-14.7,6.9C573.9-858.9,569.4-858.2,565.1-858.2z"/>
			<path class="st16" d="M625.5-1002.7h22l-13.7,142.2h-22L625.5-1002.7z M645.8-925.1c0.7-2.1,1.6-4.3,2.6-6.7
				c1-2.4,2.3-4.6,3.8-6.6c1.5-2,3.1-3.6,4.9-4.9c1.8-1.3,3.8-2,6.1-2h27.3l5.5-57.5h21.7l-13.7,142.2h-21.7l6.2-64.5H645.8z"/>
			<path class="st16" d="M754.2-891.6l-11.1,31.1h-21.7l53.9-142.2h21.6l26.5,142.2h-22.8L783-966.4l-0.6-7.2l-2,7.6l-18,50.7
				l-2.3,3.9l2.5-0.4h11.7c2.3,0,4.2,0.7,5.7,2c1.5,1.3,2.8,2.9,3.9,4.9c1,2,1.8,4.1,2.5,6.6c0.6,2.4,1.1,4.7,1.4,6.7H754.2z"/>
			<path class="st16" d="M885.3-857.8c-6.9,0-13-1.2-18.3-3.7c-5.3-2.5-9.7-6.1-13.1-11c-3.4-4.8-5.9-10.8-7.2-17.9
				c-1.4-7.1-1.6-15.3-0.7-24.5l8.5-87.8h21.7l-8.8,90.7c-0.5,5.3-0.4,10.1,0.3,14.3c0.7,4.2,2,7.7,3.8,10.7c1.8,2.9,4,5.2,6.7,6.7
				c2.7,1.6,5.6,2.3,8.9,2.3c3.3,0,6.4-0.8,9.4-2.3c3-1.6,5.6-3.8,8-6.7c2.4-2.9,4.3-6.5,5.9-10.7c1.6-4.2,2.6-8.9,3.2-14.3
				l8.8-90.7H944l-8.5,87.8c-0.8,8.6-2.6,16.4-5.4,23.5c-2.8,7-6.3,13.1-10.6,18.1c-4.3,5-9.4,8.9-15.2,11.5
				C898.5-859.2,892.1-857.8,885.3-857.8z"/>
			<path class="st16" d="M966.3-1002.7h22.2l-11.9,122h40.4l-1.8,20.1h-62.6L966.3-1002.7z"/>
		</g>
	</g>
	<g>
		<g>
			<g>
				<path class="st17" d="M35.6,103.6c-4.5-26.2-9-52-13.5-77.1c2.8-0.4,5.6-0.9,8.4-1.2c3.3,21,6.6,42.4,10,64
					c0.1,1.2,0.2,2.4,0.2,3.6c0.3-1.2,0.7-2.4,1-3.5c7.3-22,14.7-44.5,22-66.8c2.7-0.1,5.4-0.2,8.1-0.2c-9.4,27-18.7,54.4-28,81.1
					C41.1,103.5,38.3,103.6,35.6,103.6z"/>
				<path class="st17" d="M79.9,22.4c3.9,0,7.8,0.2,11.7,0.4c-2.4,26.7-4.9,53.5-7.3,80.4c-3.9,0-7.8,0-11.7,0
					C75,76.2,77.4,49.3,79.9,22.4z M90.7,66.7c0.4-1.2,0.8-2.4,1.4-3.8c0.5-1.3,1.2-2.6,2-3.6c0.8-1.1,1.7-2,2.6-2.7
					c1-0.7,2-1,3.2-1c4.8,0.2,9.7,0.5,14.5,0.9c1-10.6,2-21.1,2.9-31.6c3.8,0.5,7.7,1,11.5,1.6c-2.4,25.4-4.8,51.2-7.2,77.3
					c-3.8-0.1-7.7-0.2-11.5-0.3c1.1-12,2.2-23.9,3.3-35.8C105.9,67.2,98.3,66.8,90.7,66.7z"/>
			</g>
			<g>
				<path class="st17" d="M136.7,20.2c0,61.5,0,123,0,184.5c-20.1,11.3-40.6,22.1-61.1,30.9c-20.5-8.8-41-19.5-61.1-30.9
					c0-61.5,0-123,0-184.5C54.8,12.2,96.4,12.2,136.7,20.2 M144.2,14.2C99.1,3.3,52.1,3.3,7,14.2C7,79,7,143.8,7,208.6
					c22.6,13.3,45.6,25.8,68.6,35.7c23-9.9,46.1-22.5,68.6-35.7C144.2,143.8,144.2,79,144.2,14.2L144.2,14.2z"/>
			</g>
			<g>
				<path class="st17" d="M52.6,216.9c1.6,0.7,3.2,1.4,4.8,2.1c0-35.8,0-71.7,0-107.5c-1.6,0-3.2,0-4.8,0
					C52.6,146.6,52.6,181.7,52.6,216.9z"/>
				<path class="st17" d="M42.4,212.1c1.6,0.8,3.2,1.5,4.7,2.2c0-34.3,0-68.5,0-102.8c-1.6,0-3.2,0-4.7,0.1
					C42.4,145.1,42.4,178.6,42.4,212.1z"/>
				<path class="st17" d="M22.1,202c1.6,0.8,3.1,1.6,4.7,2.4c0-30.8,0-61.7,0-92.5c-1.6,0-3.1,0.1-4.7,0.1
					C22.1,142,22.1,172,22.1,202z"/>
				<path class="st17" d="M124.1,204.6c1.6-0.8,3.1-1.6,4.7-2.4c0-30.1,0-60.1,0-90.2c-1.6,0-3.1-0.1-4.7-0.1
					C124.1,142.8,124.1,173.7,124.1,204.6z"/>
				<path class="st17" d="M32.2,207.1c1.6,0.8,3.1,1.6,4.7,2.3c0-32.6,0-65.2,0-97.8c-1.6,0-3.2,0-4.7,0.1
					C32.2,143.6,32.2,175.3,32.2,207.1z"/>
				<path class="st17" d="M62.8,221.4c1.6,0.7,3.2,1.4,4.8,2c0-37.3,0-74.7,0-112c-1.6,0-3.2,0-4.8,0
					C62.8,148.1,62.8,184.8,62.8,221.4z"/>
				<path class="st17" d="M103.8,214.5c1.6-0.7,3.2-1.5,4.7-2.2c0-33.5,0-67.1,0-100.6c-1.6,0-3.2,0-4.7-0.1
					C103.8,145.9,103.8,180.2,103.8,214.5z"/>
				<path class="st17" d="M113.9,209.6c1.6-0.8,3.2-1.5,4.7-2.3c0-31.8,0-63.7,0-95.5c-1.6,0-3.1-0.1-4.7-0.1
					C113.9,144.3,113.9,177,113.9,209.6z"/>
				<path class="st17" d="M73.1,225.7c0.8,0.3,1.7,0.7,2.5,1c0.7-0.3,1.5-0.6,2.2-0.9c0-38.1,0-76.3,0-114.4c-1.6,0-3.2,0-4.8,0
					C73.1,149.5,73.1,187.6,73.1,225.7z"/>
				<path class="st17" d="M83.3,223.6c1.6-0.7,3.2-1.3,4.8-2c0-36.7,0-73.4,0-110.1c-1.6,0-3.2,0-4.8,0
					C83.3,148.8,83.3,186.2,83.3,223.6z"/>
				<path class="st17" d="M93.5,219.1c1.6-0.7,3.2-1.4,4.8-2.1c0-35.2,0-70.3,0-105.5c-1.6,0-3.2,0-4.8,0
					C93.5,147.4,93.5,183.3,93.5,219.1z"/>
			</g>
		</g>
		<g>
			<path class="st17" d="M199.8,183.4L174.2,41.3h15.9L208.9,158l0.5,6.5l1.8-6.3l41.4-116.9h15.3l-52.7,142.2H199.8z"/>
			<path class="st17" d="M283,41.3h63.8l-1.4,14.1h-49.1l-11.1,114h51.5l-1.2,14.1h-66.1L283,41.3z M335.7,102.1l-1.4,13.7h-38.1
				c1.4-3.8,3.3-7,5.6-9.7c2.3-2.7,5.3-4,9-4H335.7z"/>
			<path class="st17" d="M371.9,41.3h14.6l-13.7,142.2h-14.6L371.9,41.3z M436.8,102.1l5.9-60.8h14.6l-13.7,142.2h-14.6l6.5-67.7
				h-50.2c1.4-3.8,3.3-7,5.6-9.7c2.3-2.7,5.3-4,8.9-4H436.8z"/>
			<path class="st17" d="M484.8,183.4h-14.2l13.7-142.2h14.2L484.8,183.4z"/>
			<path class="st17" d="M565.1,185.8c-7.9,0-15.1-1.7-21.6-5.1c-6.5-3.4-11.9-8.2-16.3-14.5c-4.4-6.3-7.5-14-9.6-22.9
				c-2-9-2.4-19.1-1.3-30.5c1-10.9,3.4-20.9,7.1-30c3.7-9,8.4-16.8,14-23.3c5.6-6.5,12-11.6,19.2-15.1c7.1-3.6,14.7-5.4,22.6-5.4
				c4.3,0,8.7,0.5,13.2,1.6c4.5,1.1,9,2.7,13.5,4.9l-5.2,12.6c-4.3-1.8-8.3-3.1-11.9-3.9c-3.6-0.8-7.3-1.2-10.9-1.2
				c-5.3,0-10.5,1.2-15.6,3.7c-5,2.5-9.6,6.2-13.8,11.1c-4.2,5-7.7,11.2-10.6,18.7c-2.9,7.5-4.9,16.2-5.8,26.1
				c-0.8,8.9-0.5,16.9,1,24.2c1.5,7.2,3.8,13.5,6.9,18.7c3.1,5.2,7,9.2,11.6,12c4.6,2.8,9.5,4.2,14.9,4.2c3.6,0,7.3-0.6,11.2-1.8
				c3.9-1.2,8.2-3.1,12.8-5.9l2.8,12.7c-5.1,3.3-10,5.6-14.7,6.9C573.9,185.1,569.4,185.8,565.1,185.8z"/>
			<path class="st17" d="M625.5,41.3h22l-13.7,142.2h-22L625.5,41.3z M645.8,118.9c0.7-2.1,1.6-4.3,2.6-6.7c1-2.4,2.3-4.6,3.8-6.6
				c1.5-2,3.1-3.6,4.9-4.9c1.8-1.3,3.8-2,6.1-2h27.3l5.5-57.5h21.7l-13.7,142.2h-21.7l6.2-64.5H645.8z"/>
			<path class="st17" d="M754.2,152.4l-11.1,31.1h-21.7l53.9-142.2h21.6l26.5,142.2h-22.8L783,77.6l-0.6-7.2l-2,7.6l-18,50.7
				l-2.3,3.9l2.5-0.4h11.7c2.3,0,4.2,0.7,5.7,2c1.5,1.3,2.8,2.9,3.9,4.9c1,2,1.8,4.1,2.5,6.6c0.6,2.4,1.1,4.7,1.4,6.7H754.2z"/>
			<path class="st17" d="M885.3,186.2c-6.9,0-13-1.2-18.3-3.7c-5.3-2.5-9.7-6.1-13.1-11c-3.4-4.8-5.9-10.8-7.2-17.9
				c-1.4-7.1-1.6-15.3-0.7-24.5l8.5-87.8h21.7l-8.8,90.7c-0.5,5.3-0.4,10.1,0.3,14.3c0.7,4.2,2,7.7,3.8,10.7c1.8,2.9,4,5.2,6.7,6.7
				c2.7,1.6,5.6,2.3,8.9,2.3c3.3,0,6.4-0.8,9.4-2.3c3-1.6,5.6-3.8,8-6.7c2.4-2.9,4.3-6.5,5.9-10.7c1.6-4.2,2.6-8.9,3.2-14.3
				l8.8-90.7H944l-8.5,87.8c-0.8,8.6-2.6,16.4-5.4,23.5c-2.8,7-6.3,13.1-10.6,18.1c-4.3,5-9.4,8.9-15.2,11.5
				C898.5,184.8,892.1,186.2,885.3,186.2z"/>
			<path class="st17" d="M966.3,41.3h22.2l-11.9,122h40.4l-1.8,20.1h-62.6L966.3,41.3z"/>
		</g>
	</g>
</g>
<g id="Grill__x28_Alone_x29_">
	<g>
		<g>
			<path class="st15" d="M1176.2-1666.4c-18.9-109.9-37.8-218-56.7-323.4c11.7-1.9,23.4-3.6,35.1-5.2
				c13.9,88.2,27.8,177.9,41.8,268.5c0.3,5,0.7,10.1,1,15.1c1.4-4.9,2.7-9.9,4.1-14.8c30.8-92.5,61.6-186.7,92.5-280.5
				c11.4-0.4,22.7-0.7,34.1-0.8c-39.3,113.4-78.6,228.1-117.7,340.3C1199-1667,1187.6-1666.7,1176.2-1666.4z"/>
			<path class="st15" d="M1361.9-2007.5c16.4,0.2,32.9,0.7,49.3,1.5c-10.2,112.1-20.4,224.7-30.7,337.6c-16.4-0.1-32.9-0.1-49.3-0.1
				C1341.5-1781.5,1351.7-1894.6,1361.9-2007.5z M1407.4-1821.6c1.6-4.9,3.6-10.2,5.9-15.9c2.3-5.7,5.1-10.8,8.4-15.3
				c3.3-4.5,7-8.2,11-11.2c4-2.9,8.5-4.3,13.6-4c20.3,1,40.5,2.3,60.8,3.9c4.1-44.4,8.2-88.6,12.3-132.7c16.1,2,32.1,4.3,48.1,6.8
				c-10.1,106.8-20.2,215-30.4,324.2c-16.1-0.5-32.1-0.9-48.3-1.2c4.6-50.3,9.1-100.5,13.7-150.4
				C1471-1819.4,1439.2-1820.8,1407.4-1821.6z"/>
		</g>
		<g>
			<path class="st15" d="M1600.4-2016.7c0,258.1,0,516.1,0,774.2c-84.5,47.5-170.5,92.7-256.4,129.5
				c-85.9-36.8-171.9-82-256.4-129.5c0-258.1,0-516.1,0-774.2C1256.6-2050.1,1431.4-2050.1,1600.4-2016.7 M1632-2041.9
				c-189.3-45.4-386.6-45.4-575.9,0c0,272,0,544,0,816c94.6,55.7,191.3,108.5,288,149.9c96.7-41.4,193.3-94.2,288-149.9
				C1632-1497.9,1632-1769.9,1632-2041.9L1632-2041.9z"/>
		</g>
		<g>
			<path class="st15" d="M1247.5-1191.2c6.6,3,13.3,6,19.9,9c0-150.5,0-300.9,0-451.4c-6.6,0-13.3,0.1-19.9,0.2
				C1247.5-1486,1247.5-1338.6,1247.5-1191.2z"/>
			<path class="st15" d="M1204.7-1211.2c6.6,3.2,13.3,6.3,19.9,9.4c0-143.8,0-287.6,0-431.4c-6.6,0.1-13.3,0.2-19.9,0.2
				C1204.7-1492.4,1204.7-1351.8,1204.7-1211.2z"/>
			<path class="st15" d="M1119.5-1253.5c6.6,3.4,13.2,6.7,19.7,10c0-129.5,0-258.9,0-388.4c-6.6,0.1-13.2,0.3-19.7,0.4
				C1119.5-1505.5,1119.5-1379.5,1119.5-1253.5z"/>
			<path class="st15" d="M1547.5-1242.8c6.6-3.3,13.2-6.7,19.7-10c0-126.2,0-252.4,0-378.7c-6.6-0.1-13.2-0.3-19.7-0.4
				C1547.5-1502.2,1547.5-1372.5,1547.5-1242.8z"/>
			<path class="st15" d="M1162-1232c6.6,3.3,13.2,6.5,19.8,9.8c0-136.8,0-273.5,0-410.3c-6.6,0.1-13.2,0.2-19.8,0.3
				C1162-1498.9,1162-1365.5,1162-1232z"/>
			<path class="st15" d="M1290.4-1172.1c6.7,2.9,13.3,5.7,20,8.5c0-156.7,0-313.5,0-470.2c-6.7,0-13.3,0-20,0.1
				C1290.4-1479.8,1290.4-1326,1290.4-1172.1z"/>
			<path class="st15" d="M1462.1-1201.2c6.6-3.1,13.3-6.2,19.9-9.4c0-140.8,0-281.5,0-422.3c-6.6-0.1-13.3-0.2-19.9-0.2
				C1462.1-1489.2,1462.1-1345.2,1462.1-1201.2z"/>
			<path class="st15" d="M1504.9-1221.7c6.6-3.2,13.2-6.5,19.8-9.8c0-133.6,0-267.3,0-400.9c-6.6-0.1-13.2-0.2-19.8-0.3
				C1504.9-1495.6,1504.9-1358.6,1504.9-1221.7z"/>
			<path class="st15" d="M1333.4-1154.1c3.5,1.4,7.1,2.9,10.6,4.3c3.1-1.2,6.2-2.5,9.3-3.8c0-160.1,0-320.2,0-480.3
				c-6.7,0-13.3,0-20,0C1333.4-1473.9,1333.4-1314,1333.4-1154.1z"/>
			<path class="st15" d="M1376.3-1163c6.7-2.8,13.3-5.6,20-8.5c0-154.1,0-308.1,0-462.2c-6.7,0-13.3-0.1-20-0.1
				C1376.3-1476.9,1376.3-1319.9,1376.3-1163z"/>
			<path class="st15" d="M1419.3-1181.6c6.6-3,13.3-6,19.9-9c0-147.6,0-295.2,0-442.8c-6.6-0.1-13.3-0.1-19.9-0.2
				C1419.3-1482.9,1419.3-1332.3,1419.3-1181.6z"/>
		</g>
	</g>
	<g>
		<g>
			<path class="st16" d="M1176.2-622.4c-18.9-109.9-37.8-218-56.7-323.4c11.7-1.9,23.4-3.6,35.1-5.2
				c13.9,88.2,27.8,177.9,41.8,268.5c0.3,5,0.7,10.1,1,15.1c1.4-4.9,2.7-9.9,4.1-14.8c30.8-92.5,61.6-186.7,92.5-280.5
				c11.4-0.4,22.7-0.7,34.1-0.8c-39.3,113.4-78.6,228.1-117.7,340.3C1199-623,1187.6-622.7,1176.2-622.4z"/>
			<path class="st16" d="M1361.9-963.5c16.4,0.2,32.9,0.7,49.3,1.5c-10.2,112.1-20.4,224.7-30.7,337.6c-16.4-0.1-32.9-0.1-49.3-0.1
				C1341.5-737.5,1351.7-850.6,1361.9-963.5z M1407.4-777.6c1.6-4.9,3.6-10.2,5.9-15.9c2.3-5.7,5.1-10.8,8.4-15.3
				c3.3-4.5,7-8.2,11-11.2c4-2.9,8.5-4.3,13.6-4c20.3,1,40.5,2.3,60.8,3.9c4.1-44.4,8.2-88.6,12.3-132.7c16.1,2,32.1,4.3,48.1,6.8
				c-10.1,106.8-20.2,215-30.4,324.2c-16.1-0.5-32.1-0.9-48.3-1.2c4.6-50.3,9.1-100.5,13.7-150.4
				C1471-775.4,1439.2-776.8,1407.4-777.6z"/>
		</g>
		<g>
			<path class="st16" d="M1600.4-972.7c0,258.1,0,516.1,0,774.2c-84.5,47.5-170.5,92.7-256.4,129.5c-85.9-36.8-171.9-82-256.4-129.5
				c0-258.1,0-516.1,0-774.2C1256.6-1006.1,1431.4-1006.1,1600.4-972.7 M1632-997.9c-189.3-45.4-386.6-45.4-575.9,0
				c0,272,0,544,0,816c94.6,55.7,191.3,108.5,288,149.9c96.7-41.4,193.3-94.2,288-149.9C1632-453.9,1632-725.9,1632-997.9
				L1632-997.9z"/>
		</g>
		<g>
			<path class="st16" d="M1247.5-147.2c6.6,3,13.3,6,19.9,9c0-150.5,0-300.9,0-451.4c-6.6,0-13.3,0.1-19.9,0.2
				C1247.5-442,1247.5-294.6,1247.5-147.2z"/>
			<path class="st16" d="M1204.7-167.2c6.6,3.2,13.3,6.3,19.9,9.4c0-143.8,0-287.6,0-431.4c-6.6,0.1-13.3,0.2-19.9,0.2
				C1204.7-448.4,1204.7-307.8,1204.7-167.2z"/>
			<path class="st16" d="M1119.5-209.5c6.6,3.4,13.2,6.7,19.7,10c0-129.5,0-258.9,0-388.4c-6.6,0.1-13.2,0.3-19.7,0.4
				C1119.5-461.5,1119.5-335.5,1119.5-209.5z"/>
			<path class="st16" d="M1547.5-198.8c6.6-3.3,13.2-6.7,19.7-10c0-126.2,0-252.4,0-378.7c-6.6-0.1-13.2-0.3-19.7-0.4
				C1547.5-458.2,1547.5-328.5,1547.5-198.8z"/>
			<path class="st16" d="M1162-188c6.6,3.3,13.2,6.5,19.8,9.8c0-136.8,0-273.5,0-410.3c-6.6,0.1-13.2,0.2-19.8,0.3
				C1162-454.9,1162-321.5,1162-188z"/>
			<path class="st16" d="M1290.4-128.1c6.7,2.9,13.3,5.7,20,8.5c0-156.7,0-313.5,0-470.2c-6.7,0-13.3,0-20,0.1
				C1290.4-435.8,1290.4-282,1290.4-128.1z"/>
			<path class="st16" d="M1462.1-157.2c6.6-3.1,13.3-6.2,19.9-9.4c0-140.8,0-281.5,0-422.3c-6.6-0.1-13.3-0.2-19.9-0.2
				C1462.1-445.2,1462.1-301.2,1462.1-157.2z"/>
			<path class="st16" d="M1504.9-177.7c6.6-3.2,13.2-6.5,19.8-9.8c0-133.6,0-267.3,0-400.9c-6.6-0.1-13.2-0.2-19.8-0.3
				C1504.9-451.6,1504.9-314.6,1504.9-177.7z"/>
			<path class="st16" d="M1333.4-110.1c3.5,1.4,7.1,2.9,10.6,4.3c3.1-1.2,6.2-2.5,9.3-3.8c0-160.1,0-320.2,0-480.3
				c-6.7,0-13.3,0-20,0C1333.4-429.9,1333.4-270,1333.4-110.1z"/>
			<path class="st16" d="M1376.3-119c6.7-2.8,13.3-5.6,20-8.5c0-154.1,0-308.1,0-462.2c-6.7,0-13.3-0.1-20-0.1
				C1376.3-432.9,1376.3-275.9,1376.3-119z"/>
			<path class="st16" d="M1419.3-137.6c6.6-3,13.3-6,19.9-9c0-147.6,0-295.2,0-442.8c-6.6-0.1-13.3-0.1-19.9-0.2
				C1419.3-438.9,1419.3-288.3,1419.3-137.6z"/>
		</g>
	</g>
	<g>
		<g>
			<path class="st17" d="M1176.2,421.6c-18.9-109.9-37.8-218-56.7-323.4c11.7-1.9,23.4-3.6,35.1-5.2
				c13.9,88.2,27.8,177.9,41.8,268.5c0.3,5,0.7,10.1,1,15.1c1.4-4.9,2.7-9.9,4.1-14.8c30.8-92.5,61.6-186.7,92.5-280.5
				c11.4-0.4,22.7-0.7,34.1-0.8c-39.3,113.4-78.6,228.1-117.7,340.3C1199,421,1187.6,421.3,1176.2,421.6z"/>
			<path class="st17" d="M1361.9,80.5c16.4,0.2,32.9,0.7,49.3,1.5c-10.2,112.1-20.4,224.7-30.7,337.6c-16.4-0.1-32.9-0.1-49.3-0.1
				C1341.5,306.5,1351.7,193.4,1361.9,80.5z M1407.4,266.4c1.6-4.9,3.6-10.2,5.9-15.9c2.3-5.7,5.1-10.8,8.4-15.3
				c3.3-4.5,7-8.2,11-11.2c4-2.9,8.5-4.3,13.6-4c20.3,1,40.5,2.3,60.8,3.9c4.1-44.4,8.2-88.6,12.3-132.7c16.1,2,32.1,4.3,48.1,6.8
				c-10.1,106.8-20.2,215-30.4,324.2c-16.1-0.5-32.1-0.9-48.3-1.2c4.6-50.3,9.1-100.5,13.7-150.4
				C1471,268.6,1439.2,267.2,1407.4,266.4z"/>
		</g>
		<g>
			<path class="st17" d="M1600.4,71.3c0,258.1,0,516.1,0,774.2c-84.5,47.5-170.5,92.7-256.4,129.5c-85.9-36.8-171.9-82-256.4-129.5
				c0-258.1,0-516.1,0-774.2C1256.6,37.9,1431.4,37.9,1600.4,71.3 M1632,46.1c-189.3-45.4-386.6-45.4-575.9,0c0,272,0,544,0,816
				c94.6,55.7,191.3,108.5,288,149.9c96.7-41.4,193.3-94.2,288-149.9C1632,590.1,1632,318.1,1632,46.1L1632,46.1z"/>
		</g>
		<g>
			<path class="st17" d="M1247.5,896.8c6.6,3,13.3,6,19.9,9c0-150.5,0-300.9,0-451.4c-6.6,0-13.3,0.1-19.9,0.2
				C1247.5,602,1247.5,749.4,1247.5,896.8z"/>
			<path class="st17" d="M1204.7,876.8c6.6,3.2,13.3,6.3,19.9,9.4c0-143.8,0-287.6,0-431.4c-6.6,0.1-13.3,0.2-19.9,0.2
				C1204.7,595.6,1204.7,736.2,1204.7,876.8z"/>
			<path class="st17" d="M1119.5,834.5c6.6,3.4,13.2,6.7,19.7,10c0-129.5,0-258.9,0-388.4c-6.6,0.1-13.2,0.3-19.7,0.4
				C1119.5,582.5,1119.5,708.5,1119.5,834.5z"/>
			<path class="st17" d="M1547.5,845.2c6.6-3.3,13.2-6.7,19.7-10c0-126.2,0-252.4,0-378.7c-6.6-0.1-13.2-0.3-19.7-0.4
				C1547.5,585.8,1547.5,715.5,1547.5,845.2z"/>
			<path class="st17" d="M1162,856c6.6,3.3,13.2,6.5,19.8,9.8c0-136.8,0-273.5,0-410.3c-6.6,0.1-13.2,0.2-19.8,0.3
				C1162,589.1,1162,722.5,1162,856z"/>
			<path class="st17" d="M1290.4,915.9c6.7,2.9,13.3,5.7,20,8.5c0-156.7,0-313.5,0-470.2c-6.7,0-13.3,0-20,0.1
				C1290.4,608.2,1290.4,762,1290.4,915.9z"/>
			<path class="st17" d="M1462.1,886.8c6.6-3.1,13.3-6.2,19.9-9.4c0-140.8,0-281.5,0-422.3c-6.6-0.1-13.3-0.2-19.9-0.2
				C1462.1,598.8,1462.1,742.8,1462.1,886.8z"/>
			<path class="st17" d="M1504.9,866.3c6.6-3.2,13.2-6.5,19.8-9.8c0-133.6,0-267.3,0-400.9c-6.6-0.1-13.2-0.2-19.8-0.3
				C1504.9,592.4,1504.9,729.4,1504.9,866.3z"/>
			<path class="st17" d="M1333.4,933.9c3.5,1.4,7.1,2.9,10.6,4.3c3.1-1.2,6.2-2.5,9.3-3.8c0-160.1,0-320.2,0-480.3
				c-6.7,0-13.3,0-20,0C1333.4,614.1,1333.4,774,1333.4,933.9z"/>
			<path class="st17" d="M1376.3,925c6.7-2.8,13.3-5.6,20-8.5c0-154.1,0-308.1,0-462.2c-6.7,0-13.3-0.1-20-0.1
				C1376.3,611.1,1376.3,768.1,1376.3,925z"/>
			<path class="st17" d="M1419.3,906.4c6.6-3,13.3-6,19.9-9c0-147.6,0-295.2,0-442.8c-6.6-0.1-13.3-0.1-19.9-0.2
				C1419.3,605.1,1419.3,755.7,1419.3,906.4z"/>
		</g>
	</g>
</g>
</svg>
